<svg width="523" height="530" viewBox="0 0 523 530" fill="none" xmlns="http://www.w3.org/2000/svg">
<path fill-rule="evenodd" clip-rule="evenodd" d="M323 65C322.333 65 322 65.3333 322 66C319.294 66.0751 316.627 66.4084 314 67C315.434 70.1984 315.934 73.5317 315.5 77C314.353 77.9581 313.353 77.6247 312.5 76C312.29 74.4419 311.79 73.1085 311 72C310.808 68.3976 309.474 65.3976 307 63C302.976 63.5381 298.976 64.2048 295 65C294.667 64 294 63.3333 293 63C293 62.3333 292.667 62 292 62C291.843 60.6266 292.01 59.2932 292.5 58C294.159 56.6832 295.326 55.0165 296 53C299.628 52.0368 303.295 52.0368 307 53C308.884 52.7837 310.551 52.117 312 51C313.048 51.8829 314.215 52.5496 315.5 53C317.356 51.7643 319.189 51.7643 321 53C323.862 56.6431 324.529 60.6431 323 65Z" fill="#E48D37"/>
<path fill-rule="evenodd" clip-rule="evenodd" d="M292 62C292.667 62 293 62.3333 293 63C272.901 117.787 253.068 172.787 233.5 228C234.166 235.164 236.332 241.831 240 248C243.205 258.067 247.205 267.734 252 277C256.805 288.749 261.805 300.415 267 312C266.562 311.935 266.228 312.101 266 312.5C267.777 315.709 269.443 318.876 271 322C272.816 327.625 275.149 332.959 278 338C277.828 338.992 278.162 339.658 279 340C289.321 364.645 299.654 389.312 310 414C286.387 423.646 262.72 432.98 239 442C209.333 442 179.667 442 150 442C150.876 408.008 151.209 374.008 151 340C157.333 338.667 163.667 338.667 170 340C170 346.333 170 352.667 170 359C170 360 170 361 170 362C169.668 374.018 170.001 386.018 171 398C171.607 397.876 171.94 397.543 172 397C172.333 397 172.667 397 173 397C173.667 397 174 396.667 174 396C174.333 396 174.667 396 175 396C175.667 396 176 395.667 176 395C176.333 395 176.667 395 177 395C177.667 395 178 394.667 178 394C178.333 394 178.667 394 179 394C179.667 394 180 393.667 180 393C180.333 393 180.667 393 181 393C181.667 393 182 392.667 182 392C182.333 392 182.667 392 183 392C183.667 392 184 391.667 184 391C184.333 391 184.667 391 185 391C185.667 391 186 390.667 186 390C186.992 390.172 187.658 389.838 188 389C188.992 389.172 189.658 388.838 190 388C190.333 388 190.667 388 191 388C191.667 388 192 387.667 192 387C192.333 387 192.667 387 193 387C193.667 387 194 386.667 194 386C194.333 386 194.667 386 195 386C195.667 386 196 385.667 196 385C196.333 385 196.667 385 197 385C197.667 385 198 384.667 198 384C198.333 384 198.667 384 199 384C199.667 384 200 383.667 200 383C200.333 383 200.667 383 201 383C201.667 383 202 382.667 202 382C202.333 382 202.667 382 203 382C203.667 382 204 381.667 204 381C204.333 381 204.667 381 205 381C205.667 381 206 380.667 206 380C206.333 380 206.667 380 207 380C207.667 380 208 379.667 208 379C208.333 379 208.667 379 209 379C209.667 379 210 378.667 210 378C210.333 378 210.667 378 211 378C211.667 378 212 377.667 212 377C213.109 376.943 214.109 376.61 215 376C215.667 376 216 375.667 216 375C216.333 375 216.667 375 217 375C217.667 375 218 374.667 218 374C218.333 374 218.667 374 219 374C219.667 374 220 373.667 220 373C220.333 373 220.667 373 221 373C221.667 373 222 372.667 222 372C228.667 368.667 235.333 365.333 242 362C243.527 362.073 244.527 361.406 245 360C246.495 360.085 247.495 359.419 248 358C245.268 352.134 242.934 346.134 241 340C237.928 330.069 233.928 320.735 229 312C226.519 304.382 223.519 297.049 220 290C215.426 277.016 210.426 264.183 205 251.5C193.338 251 181.671 250.833 170 251C170 258 170 265 170 272C170 273 170 274 170 275C170 280 170 285 170 290C170 291 170 292 170 293C170 299.333 170 305.667 170 312C163.667 312 157.333 312 151 312C151.321 277.667 151.654 243.333 152 209C175.669 208.833 199.336 209 223 209.5C226.218 215.818 229.052 222.318 231.5 229C251.598 173.197 271.765 117.53 292 62ZM220 290C219.333 290 218.667 290 218 290C216.14 286.417 214.473 282.751 213 279C213.268 277.401 212.934 276.068 212 275C212.215 273.321 211.548 272.321 210 272C208.094 265.685 205.761 259.518 203 253.5C198.345 253.001 193.679 252.834 189 253C189 259.333 189 265.667 189 272C188.667 272 188.333 272 188 272C188 265.667 188 259.333 188 253C182.333 253 176.667 253 171 253C171 259.333 171 265.667 171 272C170.667 272 170.333 272 170 272C170 265 170 258 170 251C181.671 250.833 193.338 251 205 251.5C210.426 264.183 215.426 277.016 220 290ZM220 290C223.519 297.049 226.519 304.382 229 312C224 312 219 312 214 312C214 311.667 214 311.333 214 311C217.667 311 221.333 311 225 311C223.577 304.817 221.577 298.817 219 293C219.904 292.291 220.237 291.291 220 290ZM170 293C170.333 293 170.667 293 171 293C171 299 171 305 171 311C176.667 311 182.333 311 188 311C188 305 188 299 188 293C188.333 293 188.667 293 189 293C189 299 189 305 189 311C196.333 311 203.667 311 211 311C211 311.333 211 311.667 211 312C197.333 312 183.667 312 170 312C170 305.667 170 299.333 170 293ZM170 340C183.667 340 197.333 340 211 340C211 340.333 211 340.667 211 341C203.667 341 196.333 341 189 341C189 347 189 353 189 359C188.667 359 188.333 359 188 359C188 353 188 347 188 341C182.333 341 176.667 341 171 341C171 347 171 353 171 359C170.667 359 170.333 359 170 359C170 352.667 170 346.333 170 340ZM214 341C214 340.667 214 340.333 214 340C223 340 232 340 241 340C242.934 346.134 245.268 352.134 248 358C247.495 359.419 246.495 360.085 245 360C245 359.667 245 359.333 245 359C242.809 353.117 240.476 347.283 238 341.5C230.007 341 222.007 340.834 214 341ZM170 362C170.333 362 170.667 362 171 362C170.672 373.845 171.005 385.512 172 397C171.94 397.543 171.607 397.876 171 398C170.001 386.018 169.668 374.018 170 362ZM188 362C188.333 362 188.667 362 189 362C188.674 370.849 189.007 379.516 190 388C189.658 388.838 188.992 389.172 188 389C188 380 188 371 188 362Z" fill="black"/>
<path fill-rule="evenodd" clip-rule="evenodd" d="M307 63C301.667 82 296.333 101 291 120C286.272 120.746 281.606 121.745 277 123C282.709 103.474 288.709 84.1403 295 65C298.976 64.2048 302.976 63.5381 307 63Z" fill="#6A696F"/>
<path fill-rule="evenodd" clip-rule="evenodd" d="M307 63C309.474 65.3976 310.808 68.3976 311 72C312.449 96.7707 314.949 121.437 318.5 146C319.382 142.711 320.048 139.377 320.5 136C320.753 112.654 321.253 89.3207 322 66C322 65.3333 322.333 65 323 65C322.083 90.6614 321.917 116.328 322.5 142C323.393 145.961 324.559 149.794 326 153.5C324.856 169.635 324.689 185.801 325.5 202C327.421 223.032 329.587 244.032 332 265C331.667 265 331.333 265 331 265C331.268 263.401 330.934 262.068 330 261C328.699 246.321 327.199 231.654 325.5 217C325 229.996 324.833 242.996 325 256C322.045 255.341 319.045 255.008 316 255C315.671 220.427 316.004 185.927 317 151.5C314.084 125.761 311.584 99.9273 309.5 74C304.5 89.6815 299.666 105.348 295 121C293.541 121.067 292.208 120.734 291 120C296.333 101 301.667 82 307 63ZM322 66C321.253 89.3207 320.753 112.654 320.5 136C320.048 139.377 319.382 142.711 318.5 146C314.949 121.437 312.449 96.7707 311 72C311.79 73.1085 312.29 74.4419 312.5 76C313.353 77.6247 314.353 77.9581 315.5 77C315.934 73.5317 315.434 70.1984 314 67C316.627 66.4084 319.294 66.0751 322 66Z" fill="#010101"/>
<path fill-rule="evenodd" clip-rule="evenodd" d="M291 120C292.208 120.734 293.541 121.067 295 121C295.085 123.429 296.085 125.429 298 127C296.811 127.929 295.478 128.262 294 128C293.098 126.159 291.764 124.826 290 124C285.353 124.796 280.686 125.463 276 126C275.763 124.709 276.096 123.709 277 123C281.606 121.745 286.272 120.746 291 120Z" fill="#DC8A39"/>
<path fill-rule="evenodd" clip-rule="evenodd" d="M290 124C281.972 154.441 273.472 184.774 264.5 215C264.005 216.973 263.838 218.973 264 221C263.667 221 263.333 221 263 221C258.232 221.017 253.566 221.684 249 223C248.393 222.876 248.06 222.543 248 222C257.131 189.941 266.464 157.941 276 126C280.686 125.463 285.353 124.796 290 124Z" fill="#6A696F"/>
<path fill-rule="evenodd" clip-rule="evenodd" d="M290 124C291.764 124.826 293.098 126.159 294 128C285 159.333 276 190.667 267 222C265.891 221.943 264.891 221.61 264 221C263.838 218.973 264.005 216.973 264.5 215C273.472 184.774 281.972 154.441 290 124Z" fill="#060606"/>
<path fill-rule="evenodd" clip-rule="evenodd" d="M263 221C261.843 227.782 260.176 234.449 258 241C259.077 242.205 260.41 242.872 262 243C263.372 244.85 262.872 246.183 260.5 247C259.869 249.893 259.036 252.726 258 255.5C259 257.167 260 258.833 261 260.5C259.596 263.027 257.596 264.86 255 266C255 266.667 255 267.333 255 268C253.846 270.952 252.846 273.952 252 277C247.205 267.734 243.205 258.067 240 248C241.184 241.61 242.684 235.277 244.5 229C245.022 226.219 246.189 223.885 248 222C248.06 222.543 248.393 222.876 249 223C253.566 221.684 258.232 221.017 263 221Z" fill="#E48A35"/>
<path fill-rule="evenodd" clip-rule="evenodd" d="M263 221C263.333 221 263.667 221 264 221C264.891 221.61 265.891 221.943 267 222C265.49 229.041 263.823 236.041 262 243C260.41 242.872 259.077 242.205 258 241C260.176 234.449 261.843 227.782 263 221Z" fill="#DE6A24"/>
<path fill-rule="evenodd" clip-rule="evenodd" d="M426 460C396.333 460 366.667 460 337 460C337 454 337 448 337 442C332.333 442 327.667 442 323 442C323 438 323 434 323 430C323.999 383.836 324.332 337.503 324 291C325.629 289.875 327.129 288.541 328.5 287C329.21 288.473 330.376 289.14 332 289C332.459 283.98 331.459 279.313 329 275C329.667 275 330 274.667 330 274C330.992 274.172 331.658 273.838 332 273C332.667 273 333 272.667 333 272C346.521 264.988 359.688 257.321 372.5 249C373 269.997 373.167 290.997 373 312C386.333 312 399.667 312 413 312C413 321.333 413 330.667 413 340C399.667 340 386.333 340 373 340C373 374 373 408 373 442C390.667 442 408.333 442 426 442C426 448 426 454 426 460Z" fill="#0C70BA"/>
<path fill-rule="evenodd" clip-rule="evenodd" d="M188 272C182.333 272 176.667 272 171 272C171 265.667 171 259.333 171 253C176.667 253 182.333 253 188 253C188 259.333 188 265.667 188 272Z" fill="#0C6FBB"/>
<path fill-rule="evenodd" clip-rule="evenodd" d="M210 272C203 272 196 272 189 272C189 265.667 189 259.333 189 253C193.679 252.834 198.345 253.001 203 253.5C205.761 259.518 208.094 265.685 210 272Z" fill="#0C6FBB"/>
<path fill-rule="evenodd" clip-rule="evenodd" d="M316 255C319.045 255.008 322.045 255.341 325 256C326.43 257.886 328.097 259.553 330 261C329.237 263.641 329.07 266.308 329.5 269C330.291 267.755 330.791 266.422 331 265C331.333 265 331.667 265 332 265C333.086 265.12 333.753 265.787 334 267C333.454 268.635 333.12 270.301 333 272C332.333 272 332 272.333 332 273C331.008 272.828 330.342 273.162 330 274C329.333 274 329 274.333 329 275C331.459 279.313 332.459 283.98 332 289C330.376 289.14 329.21 288.473 328.5 287C327.129 288.541 325.629 289.875 324 291C320.181 292.969 317.514 295.969 316 300C312.851 299.711 309.851 300.211 307 301.5C303.438 305.232 299.771 308.732 296 312C288.063 319.168 282.063 327.834 278 338C275.149 332.959 272.816 327.625 271 322C272.314 317.544 274.314 314.21 277 312C277.438 312.065 277.772 311.899 278 311.5C277.333 310.167 276.667 308.833 276 307.5C279.485 304.883 281.152 301.383 281 297C281.667 297 282 296.667 282 296C283.052 296.149 284.052 295.983 285 295.5C286.798 291.517 289.798 289.183 294 288.5C292.027 288.005 290.027 287.838 288 288C288 287 288 286 288 285C291.122 285.182 293.789 284.182 296 282C296.951 282.826 297.951 282.992 299 282.5C299.534 278.994 300.867 275.828 303 273C300.821 270.783 300.821 268.783 303 267C302.791 266.414 302.457 265.914 302 265.5C304.646 265.003 307.313 264.836 310 265C309.088 259.769 311.088 256.435 316 255Z" fill="#E57525"/>
<path fill-rule="evenodd" clip-rule="evenodd" d="M255 266C263.971 275.974 272.971 285.974 282 296C282 296.667 281.667 297 281 297C272.305 287.308 263.638 277.641 255 268C255 267.333 255 266.667 255 266Z" fill="black"/>
<path fill-rule="evenodd" clip-rule="evenodd" d="M170 272C170.333 272 170.667 272 171 272C176.667 272 182.333 272 188 272C188.333 272 188.667 272 189 272C196 272 203 272 210 272C211.548 272.321 212.215 273.321 212 275C211.667 275 211.333 275 211 275C203.667 273.667 196.333 273.667 189 275C188.667 275 188.333 275 188 275C182.333 273.667 176.667 273.667 171 275C170.667 275 170.333 275 170 275C170 274 170 273 170 272Z" fill="#D8E5F1"/>
<path fill-rule="evenodd" clip-rule="evenodd" d="M188 275C188 280 188 285 188 290C182.333 291.333 176.667 291.333 171 290C171 285 171 280 171 275C176.667 273.667 182.333 273.667 188 275Z" fill="#1B74BC"/>
<path fill-rule="evenodd" clip-rule="evenodd" d="M211 275C211 280 211 285 211 290C203.667 290 196.333 290 189 290C189 285 189 280 189 275C196.333 273.667 203.667 273.667 211 275Z" fill="#1472BB"/>
<path fill-rule="evenodd" clip-rule="evenodd" d="M213 279C214.473 282.751 216.14 286.417 218 290C216.581 290.951 214.915 291.284 213 291C213 287 213 283 213 279Z" fill="#2075BD"/>
<path fill-rule="evenodd" clip-rule="evenodd" d="M212 275C212.934 276.068 213.268 277.401 213 279C213 283 213 287 213 291C214.915 291.284 216.581 290.951 218 290C218.667 290 219.333 290 220 290C220.237 291.291 219.904 292.291 219 293C217 293 215 293 213 293C212.677 299.19 213.01 305.19 214 311C214 311.333 214 311.667 214 312C213 312 212 312 211 312C211 311.667 211 311.333 211 311C211 305 211 299 211 293C203.667 293 196.333 293 189 293C188.667 293 188.333 293 188 293C182.333 293 176.667 293 171 293C170.667 293 170.333 293 170 293C170 292 170 291 170 290C170.333 290 170.667 290 171 290C176.667 291.333 182.333 291.333 188 290C188.333 290 188.667 290 189 290C196.482 290.992 204.148 291.325 212 291C212 285.667 212 280.333 212 275Z" fill="#DFEAF3"/>
<path fill-rule="evenodd" clip-rule="evenodd" d="M211 275C211.333 275 211.667 275 212 275C212 280.333 212 285.667 212 291C204.148 291.325 196.482 290.992 189 290C196.333 290 203.667 290 211 290C211 285 211 280 211 275Z" fill="#5FA0CD"/>
<path fill-rule="evenodd" clip-rule="evenodd" d="M324 291C324.332 337.503 323.999 383.836 323 430C322.667 430 322.333 430 322 430C320.333 430 318.667 430 317 430C316.002 400.171 315.669 370.171 316 340C316 330.667 316 321.333 316 312C316 308 316 304 316 300C317.514 295.969 320.181 292.969 324 291Z" fill="#010204"/>
<path fill-rule="evenodd" clip-rule="evenodd" d="M171 293C176.667 293 182.333 293 188 293C188 299 188 305 188 311C182.333 311 176.667 311 171 311C171 305 171 299 171 293Z" fill="#0C6FBB"/>
<path fill-rule="evenodd" clip-rule="evenodd" d="M189 293C196.333 293 203.667 293 211 293C211 299 211 305 211 311C203.667 311 196.333 311 189 311C189 305 189 299 189 293Z" fill="#0C6FBB"/>
<path fill-rule="evenodd" clip-rule="evenodd" d="M219 293C221.577 298.817 223.577 304.817 225 311C221.333 311 217.667 311 214 311C213.01 305.19 212.677 299.19 213 293C215 293 217 293 219 293Z" fill="#1572BB"/>
<path fill-rule="evenodd" clip-rule="evenodd" d="M151 312C157.333 312 163.667 312 170 312C183.667 312 197.333 312 211 312C212 312 213 312 214 312C219 312 224 312 229 312C233.928 320.735 237.928 330.069 241 340C232 340 223 340 214 340C213 338.667 212 338.667 211 340C197.333 340 183.667 340 170 340C163.667 338.667 157.333 338.667 151 340C145 340 139 340 133 340C133 330.667 133 321.333 133 312C139 312 145 312 151 312Z" fill="#0B6FBA"/>
<path fill-rule="evenodd" clip-rule="evenodd" d="M267 312C270.333 312 273.667 312 277 312C274.314 314.21 272.314 317.544 271 322C269.443 318.876 267.777 315.709 266 312.5C266.228 312.101 266.562 311.935 267 312Z" fill="#1F6CB1"/>
<path fill-rule="evenodd" clip-rule="evenodd" d="M296 312C302.667 312 309.333 312 316 312C316 321.333 316 330.667 316 340C303.667 340 291.333 340 279 340C278.162 339.658 277.828 338.992 278 338C282.063 327.834 288.063 319.168 296 312Z" fill="#1070BA"/>
<path fill-rule="evenodd" clip-rule="evenodd" d="M214 340C214 340.333 214 340.667 214 341C214 347 214 353 214 359C224.333 359 234.667 359 245 359C245 359.333 245 359.667 245 360C244.527 361.406 243.527 362.073 242 362C232.848 361.006 223.515 360.673 214 361C213.681 365.863 214.014 370.53 215 375C215 375.333 215 375.667 215 376C214.109 376.61 213.109 376.943 212 377C212 371.667 212 366.333 212 361C204.148 360.675 196.482 361.008 189 362C188.667 362 188.333 362 188 362C182.333 360.667 176.667 360.667 171 362C170.667 362 170.333 362 170 362C170 361 170 360 170 359C170.333 359 170.667 359 171 359C176.667 359 182.333 359 188 359C188.333 359 188.667 359 189 359C196.333 359 203.667 359 211 359C211 353 211 347 211 341C211 340.667 211 340.333 211 340C212 338.667 213 338.667 214 340Z" fill="#D0E0EE"/>
<path fill-rule="evenodd" clip-rule="evenodd" d="M188 359C182.333 359 176.667 359 171 359C171 353 171 347 171 341C176.667 341 182.333 341 188 341C188 347 188 353 188 359Z" fill="#0C6FBB"/>
<path fill-rule="evenodd" clip-rule="evenodd" d="M211 341C211 347 211 353 211 359C203.667 359 196.333 359 189 359C189 353 189 347 189 341C196.333 341 203.667 341 211 341Z" fill="#0C6FBB"/>
<path fill-rule="evenodd" clip-rule="evenodd" d="M214 341C222.007 340.834 230.007 341 238 341.5C240.476 347.283 242.809 353.117 245 359C234.667 359 224.333 359 214 359C214 353 214 347 214 341Z" fill="#0C6FBB"/>
<path fill-rule="evenodd" clip-rule="evenodd" d="M188 362C188 371 188 380 188 389C187.008 388.828 186.342 389.162 186 390C185.333 390 185 390.333 185 391C184.667 391 184.333 391 184 391C183.333 391 183 391.333 183 392C182.667 392 182.333 392 182 392C181.333 392 181 392.333 181 393C180.667 393 180.333 393 180 393C179.333 393 179 393.333 179 394C178.667 394 178.333 394 178 394C177.333 394 177 394.333 177 395C176.667 395 176.333 395 176 395C175.333 395 175 395.333 175 396C174.667 396 174.333 396 174 396C173.333 396 173 396.333 173 397C172.667 397 172.333 397 172 397C171.005 385.512 170.672 373.845 171 362C176.667 360.667 182.333 360.667 188 362Z" fill="#1171BB"/>
<path fill-rule="evenodd" clip-rule="evenodd" d="M189 362C196.333 362 203.667 362 211 362C211 367.333 211 372.667 211 378C210.667 378 210.333 378 210 378C209.333 378 209 378.333 209 379C208.667 379 208.333 379 208 379C207.333 379 207 379.333 207 380C206.667 380 206.333 380 206 380C205.333 380 205 380.333 205 381C204.667 381 204.333 381 204 381C203.333 381 203 381.333 203 382C202.667 382 202.333 382 202 382C201.333 382 201 382.333 201 383C200.667 383 200.333 383 200 383C199.333 383 199 383.333 199 384C198.667 384 198.333 384 198 384C197.333 384 197 384.333 197 385C196.667 385 196.333 385 196 385C195.333 385 195 385.333 195 386C194.667 386 194.333 386 194 386C193.333 386 193 386.333 193 387C192.667 387 192.333 387 192 387C191.333 387 191 387.333 191 388C190.667 388 190.333 388 190 388C189.007 379.516 188.674 370.849 189 362Z" fill="#0C6FBB"/>
<path fill-rule="evenodd" clip-rule="evenodd" d="M189 362C196.482 361.008 204.148 360.675 212 361C212 366.333 212 371.667 212 377C212 377.667 211.667 378 211 378C211 372.667 211 367.333 211 362C203.667 362 196.333 362 189 362Z" fill="#77ADD5"/>
<path fill-rule="evenodd" clip-rule="evenodd" d="M242 362C235.333 365.333 228.667 368.667 222 372C221.333 372 221 372.333 221 373C220.667 373 220.333 373 220 373C219.333 373 219 373.333 219 374C218.667 374 218.333 374 218 374C217.333 374 217 374.333 217 375C216.667 375 216.333 375 216 375C215.667 375 215.333 375 215 375C214.014 370.53 213.681 365.863 214 361C223.515 360.673 232.848 361.006 242 362Z" fill="#1A74BC"/>
<path fill-rule="evenodd" clip-rule="evenodd" d="M317 430C318.667 430 320.333 430 322 430C322 434.333 322 438.667 322 443C326.667 443 331.333 443 336 443C336 451 336 459 336 467C336 470.667 336 474.333 336 478C325.333 478 314.667 478 304 478C304 472 304 466 304 460C304 454 304 448 304 442C308.333 442 312.667 442 317 442C317 438 317 434 317 430Z" fill="#E67625"/>
<path fill-rule="evenodd" clip-rule="evenodd" d="M150 442C179.667 442 209.333 442 239 442C260.667 442 282.333 442 304 442C304 448 304 454 304 460C235 460 166 460 97 460C97 454 97 448 97 442C114.667 442 132.333 442 150 442Z" fill="#0B6FBA"/>
<path fill-rule="evenodd" clip-rule="evenodd" d="M322 430C322.333 430 322.667 430 323 430C323 434 323 438 323 442C327.667 442 332.333 442 337 442C337 448 337 454 337 460C337.302 462.559 336.968 464.893 336 467C336 459 336 451 336 443C331.333 443 326.667 443 322 443C322 438.667 322 434.333 322 430Z" fill="#857A6A"/>
<path fill-rule="evenodd" clip-rule="evenodd" d="M97 460C166 460 235 460 304 460C304 466 304 472 304 478C235 478 166 478 97 478C97 472 97 466 97 460Z" fill="#00A7EC"/>
<path fill-rule="evenodd" clip-rule="evenodd" d="M337 460C366.667 460 396.333 460 426 460C426 466 426 472 426 478C396 478 366 478 336 478C336 474.333 336 470.667 336 467C336.968 464.893 337.302 462.559 337 460Z" fill="#01A7EC"/>
</svg>
